<?xml version="1.0" encoding="iso-8859-1"?>
<!-- Uploaded to: SVG Repo, www.svgrepo.com, Generator: SVG Repo Mixer Tools -->
<!DOCTYPE svg PUBLIC "-//W3C//DTD SVG 1.1//EN" "http://www.w3.org/Graphics/SVG/1.1/DTD/svg11.dtd">
<svg fill="#000000" version="1.1" id="Capa_1" xmlns="http://www.w3.org/2000/svg" xmlns:xlink="http://www.w3.org/1999/xlink" 
	 width="800px" height="800px" viewBox="0 0 31.812 31.812"
	 xml:space="preserve">
<g>
	<g>
		<polygon points="18.735,2.34 4.912,3.741 4.634,3.551 17.743,2.128 17.728,1.982 4.448,3.423 4.217,3.264 17.478,1.814 
			17.461,1.667 4.03,3.136 3.775,2.961 17.241,1.471 17.226,1.325 3.59,2.833 3.304,2.638 16.946,1.121 16.929,0.974 3.118,2.51 
			2.81,2.298 3.252,2.252 17.284,0.727 16.771,0 1.425,1.626 1.425,1.849 1.425,2.441 1.425,21.986 4.204,23.948 4.204,23.963 
			6.101,23.77 6.101,4.647 18.735,3.41 		"/>
		<polygon points="24.431,6.155 10.607,7.557 10.329,7.367 23.438,5.944 23.423,5.797 10.143,7.238 9.912,7.08 23.173,5.629 
			23.157,5.483 9.725,6.951 9.471,6.776 22.938,5.286 22.922,5.14 9.285,6.648 9,6.453 22.641,4.936 22.625,4.789 8.814,6.325 
			8.506,6.113 8.947,6.067 22.981,4.542 22.466,3.816 7.12,5.441 7.12,5.664 7.12,6.256 7.12,25.801 9.9,27.764 9.9,27.779 
			11.797,27.585 11.797,8.462 24.43,7.225 		"/>
		<path d="M16.565,11.591L16.288,11.4l13.11-1.422l-0.017-0.146l-13.279,1.44l-0.231-0.158l13.261-1.45l-0.018-0.147l-13.431,1.469
			l-0.255-0.175l13.467-1.49L28.88,9.174l-13.637,1.508l-0.284-0.195L28.6,8.97l-0.016-0.146l-13.811,1.535l-0.308-0.211
			l0.441-0.046L28.94,8.575L28.425,7.85L13.078,9.476v0.222v0.592v19.545l2.78,1.962v0.016l14.527-1.475l0.003-20.15L16.565,11.591z
			 M27.791,18.977l-8.382,0.855v-4.46l8.382-0.854V18.977z"/>
	</g>
</g>
</svg>