<?xml version="1.0" encoding="iso-8859-1"?>
<!-- Uploaded to: SVG Repo, www.svgrepo.com, Generator: SVG Repo Mixer Tools -->
<!DOCTYPE svg PUBLIC "-//W3C//DTD SVG 1.1//EN" "http://www.w3.org/Graphics/SVG/1.1/DTD/svg11.dtd">
<svg fill="#000000" version="1.1" id="Capa_1" xmlns="http://www.w3.org/2000/svg" xmlns:xlink="http://www.w3.org/1999/xlink" 
	 width="800px" height="800px" viewBox="0 0 31.975 31.975"
	 xml:space="preserve">
<g>
	<g>
		<path d="M16.021,14.209l0.531,0.585V3.83c2.149-1.807,4.783-2.733,7.846-2.733c2.322,0,4.223,0.547,4.918,0.779V9h2.147
			c0-2.603,0-4.611,0-4.908c0-0.419-0.476-0.691-1.246-0.859V1.249l-0.286-0.113c-0.097-0.037-2.427-0.942-5.533-0.942
			c-3.328,0-6.194,1.014-8.527,3.014c-2.331-2-5.198-3.014-8.526-3.014c-3.108,0-5.437,0.905-5.532,0.943L1.526,1.249v1.836
			C0.585,3.26,0,3.576,0,4.09c0,2.676,0,18.918,0,18.918h13.932c0.483,0.432,1.188,0.705,1.975,0.705
			c0.286,0,0.553-0.047,0.808-0.112v-2.384c-0.281,0.113-0.521,0.215-0.691,0.289v-7.297H16.021z M15.722,21.517
			c-1.156-0.479-5.141-1.993-9.13-1.993c-1.576,0-2.974,0.242-4.164,0.72V1.875c0.695-0.232,2.587-0.779,4.917-0.779
			c3.064,0,5.696,0.926,7.847,2.733v10.965l0.53-0.585V21.517z"/>
		<path d="M17.648,10.291v21.49h14.326v-21.49H17.648z M25.113,30.702c-0.381,0-0.689-0.31-0.689-0.689
			c0-0.381,0.309-0.69,0.689-0.69c0.383,0,0.689,0.31,0.689,0.69S25.496,30.702,25.113,30.702z M29.904,28.217H19.721V12.362h10.184
			V28.217L29.904,28.217z"/>
		<rect x="20.904" y="14.037" width="7.941" height="0.725"/>
		<rect x="20.904" y="15.427" width="7.941" height="0.726"/>
		<rect x="20.904" y="16.958" width="7.941" height="0.727"/>
		<rect x="20.904" y="18.349" width="7.941" height="0.725"/>
		<rect x="20.904" y="19.758" width="7.941" height="0.726"/>
		<rect x="20.904" y="21.15" width="7.941" height="0.726"/>
		<rect x="20.904" y="22.54" width="7.941" height="0.727"/>
		<rect x="20.904" y="23.93" width="7.941" height="0.725"/>
		<rect x="20.904" y="25.254" width="7.941" height="0.726"/>
		<path d="M4.219,4.142l0.19,0.719c4.782-1.267,9.084,1.079,9.128,1.103l0.362-0.649C13.713,5.212,9.296,2.797,4.219,4.142z"/>
		<path d="M4.219,6.246l0.19,0.719c4.782-1.269,9.084,1.079,9.128,1.103l0.362-0.648C13.713,7.315,9.296,4.901,4.219,6.246z"/>
		<path d="M4.219,8.223l0.19,0.718c4.782-1.267,9.084,1.08,9.128,1.103l0.362-0.649C13.713,9.293,9.296,6.879,4.219,8.223z"/>
		<path d="M4.219,10.39l0.19,0.718c4.782-1.268,9.084,1.079,9.128,1.103l0.362-0.648C13.713,11.459,9.296,9.044,4.219,10.39z"/>
		<path d="M4.219,12.397l0.19,0.719c4.782-1.268,9.084,1.08,9.128,1.103l0.362-0.648C13.713,13.467,9.296,11.053,4.219,12.397z"/>
		<path d="M4.219,14.46l0.19,0.719c4.782-1.269,9.084,1.08,9.128,1.102l0.362-0.648C13.713,15.528,9.296,13.115,4.219,14.46z"/>
		<path d="M4.219,16.527l0.19,0.719c4.782-1.268,9.084,1.079,9.128,1.104l0.362-0.649C13.713,17.596,9.296,15.181,4.219,16.527z"/>
	</g>
</g>
</svg>